<svg xmlns="http://www.w3.org/2000/svg" width="1240" height="760" viewBox="0 0 1240 760" role="img" aria-labelledby="title desc">
  <title id="title">Wireframe dashboard admin SmartLink Business Card</title>
  <desc id="desc">Dashboard browser sederhana dengan ringkasan akun, pencarian pengguna, tabel status, dan tindakan reset sandi atau nonaktifkan akun.</desc>
  <style>
    text { font-family: Arial, Helvetica, sans-serif; fill: #202020; }
    .muted { fill: #666; }
    .tiny { font-size: 12px; }
    .small { font-size: 14px; }
    .body { font-size: 16px; }
    .title { font-size: 24px; font-weight: 700; }
    .number { font-size: 30px; font-weight: 700; }
    .bold { font-weight: 700; }
    .white { fill: #fff; }
    .line { stroke: #dedede; stroke-width: 1; }
  </style>
  <rect width="1240" height="760" fill="#f5f5f5"/>
  <rect x="24" y="24" width="1192" height="712" rx="12" fill="#fff" stroke="#ddd"/>
  <rect x="24" y="24" width="1192" height="68" rx="12" fill="#fff"/>
  <line x1="24" y1="92" x2="1216" y2="92" class="line"/>
  <text x="52" y="67" class="body bold">◉  SmartLink Business Card</text>
  <text x="969" y="66" class="small muted">admin@contoh.com</text>
  <rect x="1112" y="44" width="78" height="30" rx="5" fill="#f0f0f0"/>
  <text x="1126" y="64" class="tiny">Keluar</text>

  <rect x="24" y="92" width="230" height="644" fill="#fafafa"/>
  <line x1="254" y1="92" x2="254" y2="736" class="line"/>
  <text x="52" y="135" class="tiny muted bold">ADMIN</text>
  <rect x="40" y="154" width="198" height="42" rx="6" fill="#202020"/>
  <text x="58" y="181" class="small bold" style="fill:#fff">Akun Pengguna</text>
  <text x="58" y="226" class="small">⚙  Ubah Sandi Saya</text>
  <text x="52" y="701" class="tiny muted">Akses khusus admin</text>

  <text x="286" y="145" class="title">Akun Pengguna</text>
  <text x="286" y="171" class="small muted">Cari akun, ubah status, atau bantu reset kata sandi.</text>

  <rect x="286" y="197" width="280" height="105" rx="8" fill="#f7f7f7" stroke="#e5e5e5"/>
  <text x="306" y="225" class="small muted">Total Akun</text>
  <text x="306" y="273" class="number">128</text>
  <rect x="579" y="197" width="280" height="105" rx="8" fill="#f7f7f7" stroke="#e5e5e5"/>
  <text x="599" y="225" class="small muted">Aktif</text>
  <text x="599" y="273" class="number">124</text>
  <rect x="872" y="197" width="318" height="105" rx="8" fill="#f7f7f7" stroke="#e5e5e5"/>
  <text x="892" y="225" class="small muted">Nonaktif</text>
  <text x="892" y="273" class="number">4</text>

  <text x="286" y="351" class="body bold">Daftar Akun</text>
  <rect x="286" y="369" width="560" height="42" rx="6" fill="#fff" stroke="#d5d5d5"/>
  <text x="304" y="395" class="small muted">⌕  Cari berdasarkan email...</text>
  <rect x="1044" y="369" width="146" height="42" rx="6" fill="#f0f0f0"/>
  <text x="1060" y="395" class="small">Status: Semua  ▾</text>

  <rect x="286" y="431" width="904" height="48" fill="#f4f4f4"/>
  <text x="304" y="461" class="small bold">Email</text>
  <text x="638" y="461" class="small bold">Tanggal daftar</text>
  <text x="806" y="461" class="small bold">Status</text>
  <text x="984" y="461" class="small bold">Tindakan</text>

  <line x1="286" y1="479" x2="1190" y2="479" class="line"/>
  <text x="304" y="516" class="small">andi@example.com</text>
  <text x="638" y="516" class="small">06 Okt 2026</text>
  <rect x="800" y="493" width="68" height="28" rx="14" fill="#e9e9e9"/>
  <text x="817" y="512" class="tiny">Aktif</text>
  <text x="980" y="516" class="tiny bold">Reset Sandi</text>
  <text x="1080" y="516" class="tiny">Nonaktifkan</text>
  <line x1="286" y1="537" x2="1190" y2="537" class="line"/>

  <text x="304" y="574" class="small">siti@example.com</text>
  <text x="638" y="574" class="small">05 Okt 2026</text>
  <rect x="800" y="551" width="68" height="28" rx="14" fill="#e9e9e9"/>
  <text x="817" y="570" class="tiny">Aktif</text>
  <text x="980" y="574" class="tiny bold">Reset Sandi</text>
  <text x="1080" y="574" class="tiny">Nonaktifkan</text>
  <line x1="286" y1="595" x2="1190" y2="595" class="line"/>

  <text x="304" y="632" class="small">budi@example.com</text>
  <text x="638" y="632" class="small">01 Okt 2026</text>
  <rect x="800" y="609" width="83" height="28" rx="14" fill="#e9e9e9"/>
  <text x="812" y="628" class="tiny">Nonaktif</text>
  <text x="980" y="632" class="tiny bold">Reset Sandi</text>
  <text x="1080" y="632" class="tiny">Aktifkan</text>
  <line x1="286" y1="653" x2="1190" y2="653" class="line"/>

  <text x="286" y="699" class="tiny muted">Menampilkan 3 dari 128 akun</text>
  <rect x="1073" y="675" width="116" height="36" rx="5" fill="#202020"/>
  <text x="1092" y="698" class="tiny" style="fill:#fff">Berikutnya →</text>
</svg>
